<svg width="40" height="40" viewBox="0 0 40 40" fill="none" xmlns="http://www.w3.org/2000/svg">
<path d="M4.59951 0.015625H0.0112915V5.98236H4.59951V0.015625Z" fill="#1F3338"/>
<path d="M28.7548 7.20087V10.8701H36.3309V14.7496H25.3782V3.68484H39.9887V0.015625H25.6456C23.3961 0.015625 21.5695 1.83993 21.5695 4.09174V14.345C21.5695 16.5945 23.3938 18.4211 25.6456 18.4211H40.0001V7.20087H28.7525H28.7548Z" fill="#1F3338"/>
<path d="M0 25.6464V35.8996C0 38.1491 1.82431 39.9758 4.07613 39.9758H18.4192V36.3065H3.80865V25.2418H14.3476V29.1213H7.18523V32.7905H18.4329V21.5703H4.07841C1.82889 21.5703 0.00228616 23.3946 0.00228616 25.6464H0Z" fill="#1F3338"/>
<path d="M4.59951 12.4531H0.0112915V18.4199H4.59951V12.4531Z" fill="#1F3338"/>
<path d="M26.1577 32.7891H21.5695V39.972H26.1577V32.7891Z" fill="#1F3338"/>
<path d="M40.0002 21.5703H35.412V28.7533H40.0002V21.5703Z" fill="#1F3338"/>
<path d="M4.86481 9.21949L15.3123 18.4256H18.4306V15.3097L11.5151 9.22178L18.4306 3.13388V0.0179133L15.3123 0.015625L4.86481 9.21949Z" fill="#1F3338"/>
<path d="M21.5787 21.5703V24.828L36.7287 39.978H39.9841V36.7226L24.8341 21.5703H21.5787Z" fill="#1F3338"/>
</svg>
